<?xml version="1.0" ?><svg id="Icon_Set" style="enable-background:new 0 0 64 64;" version="1.1" viewBox="0 0 64 64" xml:space="preserve" xmlns="http://www.w3.org/2000/svg" xmlns:xlink="http://www.w3.org/1999/xlink"><style type="text/css">
	.st0{fill:#C2C2C2;}
	.st1{fill:#212A41;}
	.st2{fill:#0079A8;}
	.st3{fill:#E8D2A8;}
	.st4{fill:#E0C8A4;}
	.st5{fill:#C2AA86;}
	.st6{fill:#FEE6C2;}
	.st7{fill:#E0E0E0;}
	.st8{fill:#FEFEFE;}
	.st9{fill:#F9AC2F;}
	.st10{fill:#DB8E11;}
	.st11{fill:#BED38E;}
	.st12{fill:#DCF1AC;}
	.st13{fill:#B7C0D7;}
	.st14{fill:#FFCA4D;}
	.st15{fill:#D32E5E;}
	.st16{fill:#F14C7C;}
	.st17{fill:#99A2B9;}
	.st18{fill:#005B8A;}
	.st19{fill:#1E97C6;}
	.st20{fill:#4E4B51;}
	.st21{fill:#6C696F;}
	.st22{fill:#848483;}
	.st23{fill:#D5DEF5;}
	.st24{fill:#B51040;}
	.st25{fill:#A0B570;}
	.st26{fill:#A4A4A4;}
	.st27{fill:#829752;}
	.st28{fill:#970022;}
	.st29{fill:#302D33;}
	.st30{fill:#8A878D;}
	.st31{fill:#7B849B;}
	.st32{fill:#003D6C;}
</style><g><g><path class="st18" d="M4,54V14h50v40c0,1.105-0.895,2-2,2H6C4.895,56,4,55.105,4,54z"/><path class="st1" d="M52,56.5H6c-1.378,0-2.5-1.122-2.5-2.5V14c0-0.276,0.224-0.5,0.5-0.5h50c0.276,0,0.5,0.224,0.5,0.5v40    C54.5,55.378,53.378,56.5,52,56.5z M4.5,14.5V54c0,0.827,0.673,1.5,1.5,1.5h46c0.827,0,1.5-0.673,1.5-1.5V14.5H4.5z"/></g><g><path class="st0" d="M52,8H6c-1.105,0-2,0.895-2,2v4h50v-4C54,8.895,53.105,8,52,8z"/><path class="st1" d="M54,14.5H4c-0.276,0-0.5-0.224-0.5-0.5v-4c0-1.378,1.122-2.5,2.5-2.5h46c1.378,0,2.5,1.122,2.5,2.5v4    C54.5,14.276,54.276,14.5,54,14.5z M4.5,13.5h49V10c0-0.827-0.673-1.5-1.5-1.5H6c-0.827,0-1.5,0.673-1.5,1.5V13.5z"/></g><g><path class="st2" d="M7,54V14h50v40c0,1.105-0.895,2-2,2H9C7.895,56,7,55.105,7,54z"/><path class="st1" d="M55,56.5H9c-1.378,0-2.5-1.122-2.5-2.5V14c0-0.276,0.224-0.5,0.5-0.5h50c0.276,0,0.5,0.224,0.5,0.5v40    C57.5,55.378,56.378,56.5,55,56.5z M7.5,14.5V54c0,0.827,0.673,1.5,1.5,1.5h46c0.827,0,1.5-0.673,1.5-1.5V14.5H7.5z"/></g><g><path class="st19" d="M9,54.5c-0.276,0-0.5-0.224-0.5-0.5V16c0-0.276,0.224-0.5,0.5-0.5s0.5,0.224,0.5,0.5v38    C9.5,54.276,9.276,54.5,9,54.5z"/></g><g><path class="st18" d="M55,54.5c-0.276,0-0.5-0.224-0.5-0.5V16c0-0.276,0.224-0.5,0.5-0.5s0.5,0.224,0.5,0.5v38    C55.5,54.276,55.276,54.5,55,54.5z"/></g><g><path class="st7" d="M55,8H9c-1.105,0-2,0.895-2,2v4h50v-4C57,8.895,56.105,8,55,8z"/><path class="st1" d="M57,14.5H7c-0.276,0-0.5-0.224-0.5-0.5v-4c0-1.378,1.122-2.5,2.5-2.5h46c1.378,0,2.5,1.122,2.5,2.5v4    C57.5,14.276,57.276,14.5,57,14.5z M7.5,13.5h49V10c0-0.827-0.673-1.5-1.5-1.5H9c-0.827,0-1.5,0.673-1.5,1.5V13.5z"/></g><g><path class="st1" d="M49,11.5h-2c-0.276,0-0.5-0.224-0.5-0.5s0.224-0.5,0.5-0.5h2c0.276,0,0.5,0.224,0.5,0.5S49.276,11.5,49,11.5z    "/></g><g><path class="st1" d="M54,12.5c-0.128,0-0.256-0.049-0.354-0.146l-2-2c-0.195-0.195-0.195-0.512,0-0.707s0.512-0.195,0.707,0l2,2    c0.195,0.195,0.195,0.512,0,0.707C54.256,12.451,54.128,12.5,54,12.5z"/></g><g><path class="st1" d="M52,12.5c-0.128,0-0.256-0.049-0.354-0.146c-0.195-0.195-0.195-0.512,0-0.707l2-2    c0.195-0.195,0.512-0.195,0.707,0s0.195,0.512,0,0.707l-2,2C52.256,12.451,52.128,12.5,52,12.5z"/></g><g><path class="st9" d="M58,45H36c-1.105,0-2-0.895-2-2V27c0-1.105,0.895-2,2-2h22c1.105,0,2,0.895,2,2v16C60,44.105,59.105,45,58,45    z"/><path class="st1" d="M58,45.5H36c-1.378,0-2.5-1.122-2.5-2.5V27c0-1.378,1.122-2.5,2.5-2.5h22c1.378,0,2.5,1.122,2.5,2.5v16    C60.5,44.378,59.378,45.5,58,45.5z M36,25.5c-0.827,0-1.5,0.673-1.5,1.5v16c0,0.827,0.673,1.5,1.5,1.5h22    c0.827,0,1.5-0.673,1.5-1.5V27c0-0.827-0.673-1.5-1.5-1.5H36z"/></g><g><path class="st14" d="M36,43.5c-0.276,0-0.5-0.224-0.5-0.5V27c0-0.276,0.224-0.5,0.5-0.5s0.5,0.224,0.5,0.5v16    C36.5,43.276,36.276,43.5,36,43.5z"/></g><g><path class="st10" d="M58,43.5c-0.276,0-0.5-0.224-0.5-0.5V27c0-0.276,0.224-0.5,0.5-0.5s0.5,0.224,0.5,0.5v16    C58.5,43.276,58.276,43.5,58,43.5z"/></g><g><path class="st1" d="M40.5,34c-0.276,0-0.5-0.224-0.5-0.5V28h-0.5c-0.276,0-0.5-0.224-0.5-0.5s0.224-0.5,0.5-0.5h1    c0.276,0,0.5,0.224,0.5,0.5v6C41,33.776,40.776,34,40.5,34z"/></g><g><path class="st1" d="M41.5,34h-2c-0.276,0-0.5-0.224-0.5-0.5s0.224-0.5,0.5-0.5h2c0.276,0,0.5,0.224,0.5,0.5S41.776,34,41.5,34z"/></g><g><path class="st1" d="M40.5,43c-0.276,0-0.5-0.224-0.5-0.5V37h-0.5c-0.276,0-0.5-0.224-0.5-0.5s0.224-0.5,0.5-0.5h1    c0.276,0,0.5,0.224,0.5,0.5v6C41,42.776,40.776,43,40.5,43z"/></g><g><path class="st1" d="M41.5,43h-2c-0.276,0-0.5-0.224-0.5-0.5s0.224-0.5,0.5-0.5h2c0.276,0,0.5,0.224,0.5,0.5S41.776,43,41.5,43z"/></g><g><path class="st1" d="M46.5,43c-0.276,0-0.5-0.224-0.5-0.5V37h-0.5c-0.276,0-0.5-0.224-0.5-0.5s0.224-0.5,0.5-0.5h1    c0.276,0,0.5,0.224,0.5,0.5v6C47,42.776,46.776,43,46.5,43z"/></g><g><path class="st1" d="M47.5,43h-2c-0.276,0-0.5-0.224-0.5-0.5s0.224-0.5,0.5-0.5h2c0.276,0,0.5,0.224,0.5,0.5S47.776,43,47.5,43z"/></g><g><path class="st1" d="M52.5,34c-0.276,0-0.5-0.224-0.5-0.5V28h-0.5c-0.276,0-0.5-0.224-0.5-0.5s0.224-0.5,0.5-0.5h1    c0.276,0,0.5,0.224,0.5,0.5v6C53,33.776,52.776,34,52.5,34z"/></g><g><path class="st1" d="M53.5,34h-2c-0.276,0-0.5-0.224-0.5-0.5s0.224-0.5,0.5-0.5h2c0.276,0,0.5,0.224,0.5,0.5S53.776,34,53.5,34z"/></g><g><path class="st1" d="M46.5,34c-1.378,0-2.5-1.122-2.5-2.5v-2c0-1.378,1.122-2.5,2.5-2.5s2.5,1.122,2.5,2.5v2    C49,32.878,47.878,34,46.5,34z M46.5,28c-0.827,0-1.5,0.673-1.5,1.5v2c0,0.827,0.673,1.5,1.5,1.5s1.5-0.673,1.5-1.5v-2    C48,28.673,47.327,28,46.5,28z"/></g><g><path class="st1" d="M52.5,43c-1.378,0-2.5-1.122-2.5-2.5v-2c0-1.378,1.122-2.5,2.5-2.5s2.5,1.122,2.5,2.5v2    C55,41.878,53.878,43,52.5,43z M52.5,37c-0.827,0-1.5,0.673-1.5,1.5v2c0,0.827,0.673,1.5,1.5,1.5s1.5-0.673,1.5-1.5v-2    C54,37.673,53.327,37,52.5,37z"/></g><g><path class="st1" d="M26,24.5H16c-0.276,0-0.5-0.224-0.5-0.5s0.224-0.5,0.5-0.5h10c0.276,0,0.5,0.224,0.5,0.5S26.276,24.5,26,24.5    z"/></g><g><path class="st1" d="M26,28.5H16c-0.276,0-0.5-0.224-0.5-0.5s0.224-0.5,0.5-0.5h10c0.276,0,0.5,0.224,0.5,0.5S26.276,28.5,26,28.5    z"/></g><g><path class="st1" d="M26,42.5H16c-0.276,0-0.5-0.224-0.5-0.5s0.224-0.5,0.5-0.5h10c0.276,0,0.5,0.224,0.5,0.5S26.276,42.5,26,42.5    z"/></g><g><path class="st1" d="M26,46.5H16c-0.276,0-0.5-0.224-0.5-0.5s0.224-0.5,0.5-0.5h10c0.276,0,0.5,0.224,0.5,0.5S26.276,46.5,26,46.5    z"/></g><g><path class="st13" d="M27.5,50c-0.829,0-1.5-0.671-1.5-1.5v-6.147c0-1.551-0.821-3.019-2.142-3.833l-7.289-4.485    C14.368,32.68,13,30.232,13,27.647V21.5c0-0.829,0.671-1.5,1.5-1.5s1.5,0.671,1.5,1.5v6.147c0,1.551,0.821,3.019,2.142,3.833    l7.289,4.485C27.632,37.32,29,39.768,29,42.353V48.5C29,49.329,28.329,50,27.5,50z"/><path class="st1" d="M27.5,50.5c-1.103,0-2-0.897-2-2v-6.147c0-1.378-0.729-2.684-1.904-3.407l-7.289-4.485    c-2.348-1.445-3.807-4.056-3.807-6.813V21.5c0-1.103,0.897-2,2-2s2,0.897,2,2v6.147c0,1.378,0.729,2.684,1.904,3.407l7.289,4.485    c2.348,1.445,3.807,4.056,3.807,6.813V48.5C29.5,49.603,28.603,50.5,27.5,50.5z M14.5,20.5c-0.551,0-1,0.449-1,1v6.147    c0,2.413,1.276,4.697,3.332,5.961l7.289,4.485c1.468,0.904,2.379,2.536,2.379,4.258V48.5c0,0.551,0.449,1,1,1s1-0.449,1-1v-6.147    c0-2.413-1.276-4.697-3.332-5.961l-7.289-4.485c-1.468-0.904-2.379-2.536-2.379-4.258V21.5C15.5,20.949,15.051,20.5,14.5,20.5z"/></g><g><path class="st13" d="M14.5,50c-0.829,0-1.5-0.671-1.5-1.5v-6.147c0-2.584,1.368-5.032,3.569-6.387l7.289-4.485    C25.179,30.667,26,29.198,26,27.647V21.5c0-0.829,0.671-1.5,1.5-1.5s1.5,0.671,1.5,1.5v6.147c0,2.584-1.368,5.032-3.569,6.387    l-7.289,4.485C16.821,39.333,16,40.802,16,42.353V48.5C16,49.329,15.329,50,14.5,50z"/><path class="st1" d="M14.5,50.5c-1.103,0-2-0.897-2-2v-6.147c0-2.757,1.459-5.368,3.807-6.813l7.289-4.485    c1.174-0.723,1.904-2.029,1.904-3.407V21.5c0-1.103,0.897-2,2-2s2,0.897,2,2v6.147c0,2.757-1.459,5.368-3.807,6.813l-7.289,4.485    c-1.174,0.723-1.904,2.029-1.904,3.407V48.5C16.5,49.603,15.603,50.5,14.5,50.5z M27.5,20.5c-0.551,0-1,0.449-1,1v6.147    c0,1.723-0.912,3.354-2.379,4.258l-7.289,4.485c-2.055,1.265-3.332,3.549-3.332,5.961V48.5c0,0.551,0.449,1,1,1s1-0.449,1-1    v-6.147c0-1.723,0.912-3.354,2.379-4.258l7.289-4.485c2.055-1.265,3.332-3.549,3.332-5.961V21.5    C28.5,20.949,28.051,20.5,27.5,20.5z"/></g></g></svg>